<svg class="main-svg" xmlns="http://www.w3.org/2000/svg" xmlns:xlink="http://www.w3.org/1999/xlink" width="700" height="500" style="" viewBox="0 0 700 500"><rect x="0" y="0" width="700" height="500" style="fill: rgb(255, 255, 255); fill-opacity: 1;"/><defs id="defs-3af86f"><g class="clips"><clipPath id="clip3af86fxyplot" class="plotclip"><rect width="562.5004323215088" height="362.72673679461946"/></clipPath><clipPath class="axesclip" id="clip3af86fx"><rect x="85.7702816430523" y="0" width="562.5004323215088" height="500"/></clipPath><clipPath class="axesclip" id="clip3af86fy"><rect x="0" y="71.87339375546811" width="700" height="362.72673679461946"/></clipPath><clipPath class="axesclip" id="clip3af86fxy"><rect x="85.7702816430523" y="71.87339375546811" width="562.5004323215088" height="362.72673679461946"/></clipPath></g><g class="gradients"/></defs><g class="bglayer"/><g class="layer-below"><g class="imagelayer"/><g class="shapelayer"/></g><g class="cartesianlayer"><g class="subplot xy"><g class="layer-subplot"><g class="shapelayer"/><g class="imagelayer"/></g><g class="gridlayer"><g class="x"><path class="xgrid crisp" transform="translate(137.07028164305228,0)" d="M0,71.87339375546811v362.72673679461946" style="stroke: rgb(0, 0, 0); stroke-opacity: 0.1; stroke-width: 0.5px;"/><path class="xgrid crisp" transform="translate(243.2002816430523,0)" d="M0,71.87339375546811v362.72673679461946" style="stroke: rgb(0, 0, 0); stroke-opacity: 0.1; stroke-width: 0.5px;"/><path class="xgrid crisp" transform="translate(349.33028164305233,0)" d="M0,71.87339375546811v362.72673679461946" style="stroke: rgb(0, 0, 0); stroke-opacity: 0.1; stroke-width: 0.5px;"/><path class="xgrid crisp" transform="translate(455.4602816430523,0)" d="M0,71.87339375546811v362.72673679461946" style="stroke: rgb(0, 0, 0); stroke-opacity: 0.1; stroke-width: 0.5px;"/><path class="xgrid crisp" transform="translate(561.6002816430523,0)" d="M0,71.87339375546811v362.72673679461946" style="stroke: rgb(0, 0, 0); stroke-opacity: 0.1; stroke-width: 0.5px;"/></g><g class="y"><path class="ygrid crisp" transform="translate(0,424.3333937554681)" d="M85.7702816430523,0h562.5004323215088" style="stroke: rgb(0, 0, 0); stroke-opacity: 0.1; stroke-width: 0.5px;"/><path class="ygrid crisp" transform="translate(0,355.8933937554681)" d="M85.7702816430523,0h562.5004323215088" style="stroke: rgb(0, 0, 0); stroke-opacity: 0.1; stroke-width: 0.5px;"/><path class="ygrid crisp" transform="translate(0,287.45339375546814)" d="M85.7702816430523,0h562.5004323215088" style="stroke: rgb(0, 0, 0); stroke-opacity: 0.1; stroke-width: 0.5px;"/><path class="ygrid crisp" transform="translate(0,219.0133937554681)" d="M85.7702816430523,0h562.5004323215088" style="stroke: rgb(0, 0, 0); stroke-opacity: 0.1; stroke-width: 0.5px;"/><path class="ygrid crisp" transform="translate(0,150.57339375546812)" d="M85.7702816430523,0h562.5004323215088" style="stroke: rgb(0, 0, 0); stroke-opacity: 0.1; stroke-width: 0.5px;"/><path class="ygrid crisp" transform="translate(0,82.14339375546811)" d="M85.7702816430523,0h562.5004323215088" style="stroke: rgb(0, 0, 0); stroke-opacity: 0.1; stroke-width: 0.5px;"/></g></g><g class="zerolinelayer"/><path class="xlines-below"/><path class="ylines-below"/><g class="overlines-below"/><g class="xaxislayer-below"/><g class="yaxislayer-below"/><g class="overaxes-below"/><g class="plot" transform="translate(85.7702816430523,71.87339375546811)" clip-path="url('#clip3af86fxyplot')"><g class="scatterlayer mlayer"><g class="trace scatter trace54cc11" style="stroke-miterlimit: 2; opacity: 1;"><g class="fills"/><g class="errorbars"/><g class="lines"><path class="js-line" d="M15.92,95.81L37.15,76.51L40.68,73.54L58.37,59.68L61.91,57.11L79.6,45.31L83.14,43.15L100.83,33.4L104.36,31.65L122.05,23.95L125.59,22.62L143.28,16.97L146.82,16.05L164.5,12.46L168.04,11.94L185.73,10.4L189.27,10.3L206.96,10.81L210.5,11.12L228.18,13.69L231.72,14.41L249.41,19.03L252.95,20.16L270.64,26.83L274.17,28.37L291.86,37.09L295.4,39.04L313.09,49.82L316.63,52.18L334.32,65.02L337.85,67.79L355.54,82.67L359.08,85.86L376.77,102.8L380.31,106.39L401.53,129.38L405.07,133.46L426.3,159.33L429.84,163.88L451.06,192.62L454.6,197.65L475.83,229.27L479.36,234.78L500.59,269.27L504.13,275.26L528.89,319.1L532.43,325.63L546.58,352.46" style="vector-effect: non-scaling-stroke; fill: none; stroke: rgb(0, 154, 250); stroke-opacity: 1; stroke-width: 1px; opacity: 1;"/></g><g class="points"/><g class="text"/></g></g></g><g class="overplot"/><path class="xlines-above crisp" d="M84.7702816430523,435.10013055008756H648.2707139645611" style="fill: none; stroke-width: 1px; stroke: rgb(0, 0, 0); stroke-opacity: 1;"/><path class="ylines-above crisp" d="M85.2702816430523,71.87339375546811V434.60013055008756" style="fill: none; stroke-width: 1px; stroke: rgb(0, 0, 0); stroke-opacity: 1;"/><g class="overlines-above"/><g class="xaxislayer-above"><path class="xtick ticks crisp" d="M0,434.60013055008756v-5" transform="translate(137.07028164305228,0)" style="stroke: rgb(0, 0, 0); stroke-opacity: 1; stroke-width: 1px;"/><path class="xtick ticks crisp" d="M0,434.60013055008756v-5" transform="translate(243.2002816430523,0)" style="stroke: rgb(0, 0, 0); stroke-opacity: 1; stroke-width: 1px;"/><path class="xtick ticks crisp" d="M0,434.60013055008756v-5" transform="translate(349.33028164305233,0)" style="stroke: rgb(0, 0, 0); stroke-opacity: 1; stroke-width: 1px;"/><path class="xtick ticks crisp" d="M0,434.60013055008756v-5" transform="translate(455.4602816430523,0)" style="stroke: rgb(0, 0, 0); stroke-opacity: 1; stroke-width: 1px;"/><path class="xtick ticks crisp" d="M0,434.60013055008756v-5" transform="translate(561.6002816430523,0)" style="stroke: rgb(0, 0, 0); stroke-opacity: 1; stroke-width: 1px;"/><g class="xtick"><text text-anchor="middle" x="0" y="448.80013055008754" transform="translate(137.07028164305228,0)" style="font-family: sans-serif; font-size: 11px; fill: rgb(0, 0, 0); fill-opacity: 1; white-space: pre;">60</text></g><g class="xtick"><text text-anchor="middle" x="0" y="448.80013055008754" transform="translate(243.2002816430523,0)" style="font-family: sans-serif; font-size: 11px; fill: rgb(0, 0, 0); fill-opacity: 1; white-space: pre;">90</text></g><g class="xtick"><text text-anchor="middle" x="0" y="448.80013055008754" transform="translate(349.33028164305233,0)" style="font-family: sans-serif; font-size: 11px; fill: rgb(0, 0, 0); fill-opacity: 1; white-space: pre;">120</text></g><g class="xtick"><text text-anchor="middle" x="0" y="448.80013055008754" transform="translate(455.4602816430523,0)" style="font-family: sans-serif; font-size: 11px; fill: rgb(0, 0, 0); fill-opacity: 1; white-space: pre;">150</text></g><g class="xtick"><text text-anchor="middle" x="0" y="448.80013055008754" transform="translate(561.6002816430523,0)" style="font-family: sans-serif; font-size: 11px; fill: rgb(0, 0, 0); fill-opacity: 1; white-space: pre;">180</text></g></g><g class="yaxislayer-above"><path class="ytick ticks crisp" d="M85.7702816430523,0h5" transform="translate(0,424.3333937554681)" style="stroke: rgb(0, 0, 0); stroke-opacity: 1; stroke-width: 1px;"/><path class="ytick ticks crisp" d="M85.7702816430523,0h5" transform="translate(0,355.8933937554681)" style="stroke: rgb(0, 0, 0); stroke-opacity: 1; stroke-width: 1px;"/><path class="ytick ticks crisp" d="M85.7702816430523,0h5" transform="translate(0,287.45339375546814)" style="stroke: rgb(0, 0, 0); stroke-opacity: 1; stroke-width: 1px;"/><path class="ytick ticks crisp" d="M85.7702816430523,0h5" transform="translate(0,219.0133937554681)" style="stroke: rgb(0, 0, 0); stroke-opacity: 1; stroke-width: 1px;"/><path class="ytick ticks crisp" d="M85.7702816430523,0h5" transform="translate(0,150.57339375546812)" style="stroke: rgb(0, 0, 0); stroke-opacity: 1; stroke-width: 1px;"/><path class="ytick ticks crisp" d="M85.7702816430523,0h5" transform="translate(0,82.14339375546811)" style="stroke: rgb(0, 0, 0); stroke-opacity: 1; stroke-width: 1px;"/><g class="ytick"><text text-anchor="end" x="82.5702816430523" y="3.8499999999999996" transform="translate(0,424.3333937554681)" style="font-family: sans-serif; font-size: 11px; fill: rgb(0, 0, 0); fill-opacity: 1; white-space: pre;">0</text></g><g class="ytick"><text text-anchor="end" x="82.5702816430523" y="3.8499999999999996" transform="translate(0,355.8933937554681)" style="font-family: sans-serif; font-size: 11px; fill: rgb(0, 0, 0); fill-opacity: 1; white-space: pre;">1.0×10⁴</text></g><g class="ytick"><text text-anchor="end" x="82.5702816430523" y="3.8499999999999996" transform="translate(0,287.45339375546814)" style="font-family: sans-serif; font-size: 11px; fill: rgb(0, 0, 0); fill-opacity: 1; white-space: pre;">2.0×10⁴</text></g><g class="ytick"><text text-anchor="end" x="82.5702816430523" y="3.8499999999999996" transform="translate(0,219.0133937554681)" style="font-family: sans-serif; font-size: 11px; fill: rgb(0, 0, 0); fill-opacity: 1; white-space: pre;">3.0×10⁴</text></g><g class="ytick"><text text-anchor="end" x="82.5702816430523" y="3.8499999999999996" transform="translate(0,150.57339375546812)" style="font-family: sans-serif; font-size: 11px; fill: rgb(0, 0, 0); fill-opacity: 1; white-space: pre;">4.0×10⁴</text></g><g class="ytick"><text text-anchor="end" x="82.5702816430523" y="3.8499999999999996" transform="translate(0,82.14339375546811)" style="font-family: sans-serif; font-size: 11px; fill: rgb(0, 0, 0); fill-opacity: 1; white-space: pre;">5.0×10⁴</text></g></g><g class="overaxes-above"/></g></g><g class="polarlayer"/><g class="ternarylayer"/><g class="geolayer"/><g class="funnelarealayer"/><g class="pielayer"/><g class="treemaplayer"/><g class="sunburstlayer"/><g class="glimages"/><defs id="topdefs-3af86f"><g class="clips"/><clipPath id="legend3af86f"><rect width="58" height="29" x="1" y="1"/></clipPath></defs><g class="layer-above"><g class="imagelayer"/><g class="shapelayer"/></g><g class="infolayer"><g class="legend" pointer-events="all" transform="translate(590,60)"><rect class="bg" shape-rendering="crispEdges" width="59" height="30" x="0.5" y="0.5" style="stroke: rgb(0, 0, 0); stroke-opacity: 1; fill: rgb(255, 255, 255); fill-opacity: 1; stroke-width: 1px;"/><g class="scrollbox" transform="" clip-path="url('#legend3af86f')"><g class="groups"><g class="traces" transform="translate(1,15.5)" style="opacity: 1;"><text class="legendtext" text-anchor="start" x="40" y="4.29" style="font-family: sans-serif; font-size: 11px; fill: rgb(0, 0, 0); fill-opacity: 1; white-space: pre;">y1</text><g class="layers" style="opacity: 1;"><g class="legendfill"/><g class="legendlines"><path class="js-line" d="M5,0h30" style="fill: none; stroke: rgb(0, 154, 250); stroke-opacity: 1; stroke-width: 1px;"/></g><g class="legendsymbols"><g class="legendpoints"/></g></g><rect class="legendtoggle" x="0" y="-9.5" width="52.625" height="19" style="fill: rgb(0, 0, 0); fill-opacity: 0;"/></g></g></g><rect class="scrollbar" rx="20" ry="3" width="0" height="0" x="0" y="0" style="fill: rgb(128, 139, 164); fill-opacity: 1;"/></g><g class="g-gtitle"/><g class="g-xtitle"><text class="xtitle" x="367.02049780380673" y="476.3125" text-anchor="middle" style="font-family: sans-serif; font-size: 15px; fill: rgb(0, 0, 0); opacity: 1; font-weight: normal; white-space: pre;">price ($)</text></g><g class="g-ytitle"><text class="ytitle" transform="rotate(-90,19.453125,253.23676215277783)" x="19.453125" y="253.23676215277783" text-anchor="middle" style="font-family: sans-serif; font-size: 15px; fill: rgb(0, 0, 0); opacity: 1; font-weight: normal; white-space: pre;">revenue ($)</text></g><g class="annotation" data-index="0" style="opacity: 1;"><g class="annotation-text-g" transform="rotate(0,367.0204978038068,73)"><g class="cursor-pointer" transform="translate(290,60)"><rect class="bg" x="0.5" y="0.5" width="154" height="25" style="stroke-width: 1px; stroke: rgb(0, 0, 0); stroke-opacity: 0; fill: rgb(0, 0, 0); fill-opacity: 0;"/><text class="annotation-text" text-anchor="middle" x="77.59375" y="20" style="font-family: sans-serif; font-size: 20px; fill: rgb(0, 0, 0); fill-opacity: 1; white-space: pre;">maximiz revenue</text></g></g></g></g></svg>