<?xml version="1.0" encoding="utf-8"?>
<svg xmlns="http://www.w3.org/2000/svg" xmlns:xlink="http://www.w3.org/1999/xlink" width="1366" height="768" viewBox="0 0 5464 3072">
<defs>
  <clipPath id="clip710">
    <rect x="0" y="0" width="5464" height="3072"/>
  </clipPath>
</defs>
<path clip-path="url(#clip710)" d="M0 3072 L5464 3072 L5464 0 L0 0  Z" fill="#ffffff" fill-rule="evenodd" fill-opacity="1"/>
<defs>
  <clipPath id="clip711">
    <rect x="1092" y="0" width="3826" height="3072"/>
  </clipPath>
</defs>
<path clip-path="url(#clip710)" d="M255.585 2893.32 L5416.76 2893.32 L5416.76 113.997 L255.585 113.997  Z" fill="#ffffff" fill-rule="evenodd" fill-opacity="1"/>
<defs>
  <clipPath id="clip712">
    <rect x="255" y="113" width="5162" height="2780"/>
  </clipPath>
</defs>
<polyline clip-path="url(#clip712)" style="stroke:#000000; stroke-linecap:round; stroke-linejoin:round; stroke-width:2; stroke-opacity:0.1; fill:none" points="1426.71,2893.32 1426.71,113.997 "/>
<polyline clip-path="url(#clip712)" style="stroke:#000000; stroke-linecap:round; stroke-linejoin:round; stroke-width:2; stroke-opacity:0.1; fill:none" points="2708.04,2893.32 2708.04,113.997 "/>
<polyline clip-path="url(#clip712)" style="stroke:#000000; stroke-linecap:round; stroke-linejoin:round; stroke-width:2; stroke-opacity:0.1; fill:none" points="3989.36,2893.32 3989.36,113.997 "/>
<polyline clip-path="url(#clip712)" style="stroke:#000000; stroke-linecap:round; stroke-linejoin:round; stroke-width:2; stroke-opacity:0.1; fill:none" points="5270.69,2893.32 5270.69,113.997 "/>
<polyline clip-path="url(#clip710)" style="stroke:#000000; stroke-linecap:round; stroke-linejoin:round; stroke-width:4; stroke-opacity:1; fill:none" points="255.585,2893.32 5416.76,2893.32 "/>
<polyline clip-path="url(#clip710)" style="stroke:#000000; stroke-linecap:round; stroke-linejoin:round; stroke-width:4; stroke-opacity:1; fill:none" points="1426.71,2893.32 1426.71,2874.42 "/>
<polyline clip-path="url(#clip710)" style="stroke:#000000; stroke-linecap:round; stroke-linejoin:round; stroke-width:4; stroke-opacity:1; fill:none" points="2708.04,2893.32 2708.04,2874.42 "/>
<polyline clip-path="url(#clip710)" style="stroke:#000000; stroke-linecap:round; stroke-linejoin:round; stroke-width:4; stroke-opacity:1; fill:none" points="3989.36,2893.32 3989.36,2874.42 "/>
<polyline clip-path="url(#clip710)" style="stroke:#000000; stroke-linecap:round; stroke-linejoin:round; stroke-width:4; stroke-opacity:1; fill:none" points="5270.69,2893.32 5270.69,2874.42 "/>
<path clip-path="url(#clip710)" d="M1416.99 2945.67 L1435.35 2945.67 L1435.35 2949.61 L1421.27 2949.61 L1421.27 2958.08 Q1422.29 2957.73 1423.31 2957.57 Q1424.33 2957.38 1425.35 2957.38 Q1431.14 2957.38 1434.52 2960.55 Q1437.89 2963.73 1437.89 2969.14 Q1437.89 2974.72 1434.42 2977.82 Q1430.95 2980.9 1424.63 2980.9 Q1422.46 2980.9 1420.19 2980.53 Q1417.94 2980.16 1415.53 2979.42 L1415.53 2974.72 Q1417.62 2975.86 1419.84 2976.41 Q1422.06 2976.97 1424.54 2976.97 Q1428.54 2976.97 1430.88 2974.86 Q1433.22 2972.75 1433.22 2969.14 Q1433.22 2965.53 1430.88 2963.43 Q1428.54 2961.32 1424.54 2961.32 Q1422.66 2961.32 1420.79 2961.74 Q1418.94 2962.15 1416.99 2963.03 L1416.99 2945.67 Z" fill="#000000" fill-rule="nonzero" fill-opacity="1" /><path clip-path="url(#clip710)" d="M2682.73 2976.3 L2690.36 2976.3 L2690.36 2949.93 L2682.05 2951.6 L2682.05 2947.34 L2690.32 2945.67 L2694.99 2945.67 L2694.99 2976.3 L2702.63 2976.3 L2702.63 2980.23 L2682.73 2980.23 L2682.73 2976.3 Z" fill="#000000" fill-rule="nonzero" fill-opacity="1" /><path clip-path="url(#clip710)" d="M2722.08 2948.75 Q2718.47 2948.75 2716.64 2952.31 Q2714.83 2955.86 2714.83 2962.99 Q2714.83 2970.09 2716.64 2973.66 Q2718.47 2977.2 2722.08 2977.2 Q2725.71 2977.2 2727.52 2973.66 Q2729.35 2970.09 2729.35 2962.99 Q2729.35 2955.86 2727.52 2952.31 Q2725.71 2948.75 2722.08 2948.75 M2722.08 2945.05 Q2727.89 2945.05 2730.94 2949.65 Q2734.02 2954.24 2734.02 2962.99 Q2734.02 2971.71 2730.94 2976.32 Q2727.89 2980.9 2722.08 2980.9 Q2716.27 2980.9 2713.19 2976.32 Q2710.13 2971.71 2710.13 2962.99 Q2710.13 2954.24 2713.19 2949.65 Q2716.27 2945.05 2722.08 2945.05 Z" fill="#000000" fill-rule="nonzero" fill-opacity="1" /><path clip-path="url(#clip710)" d="M3964.55 2976.3 L3972.19 2976.3 L3972.19 2949.93 L3963.88 2951.6 L3963.88 2947.34 L3972.14 2945.67 L3976.82 2945.67 L3976.82 2976.3 L3984.45 2976.3 L3984.45 2980.23 L3964.55 2980.23 L3964.55 2976.3 Z" fill="#000000" fill-rule="nonzero" fill-opacity="1" /><path clip-path="url(#clip710)" d="M3993.94 2945.67 L4012.3 2945.67 L4012.3 2949.61 L3998.23 2949.61 L3998.23 2958.08 Q3999.25 2957.73 4000.26 2957.57 Q4001.28 2957.38 4002.3 2957.38 Q4008.09 2957.38 4011.47 2960.55 Q4014.85 2963.73 4014.85 2969.14 Q4014.85 2974.72 4011.38 2977.82 Q4007.9 2980.9 4001.58 2980.9 Q3999.41 2980.9 3997.14 2980.53 Q3994.89 2980.16 3992.49 2979.42 L3992.49 2974.72 Q3994.57 2975.86 3996.79 2976.41 Q3999.01 2976.97 4001.49 2976.97 Q4005.5 2976.97 4007.83 2974.86 Q4010.17 2972.75 4010.17 2969.14 Q4010.17 2965.53 4007.83 2963.43 Q4005.5 2961.32 4001.49 2961.32 Q3999.62 2961.32 3997.74 2961.74 Q3995.89 2962.15 3993.94 2963.03 L3993.94 2945.67 Z" fill="#000000" fill-rule="nonzero" fill-opacity="1" /><path clip-path="url(#clip710)" d="M5249.46 2976.3 L5265.78 2976.3 L5265.78 2980.23 L5243.83 2980.23 L5243.83 2976.3 Q5246.5 2973.54 5251.08 2968.91 Q5255.69 2964.26 5256.87 2962.92 Q5259.11 2960.39 5259.99 2958.66 Q5260.89 2956.9 5260.89 2955.21 Q5260.89 2952.45 5258.95 2950.72 Q5257.03 2948.98 5253.93 2948.98 Q5251.73 2948.98 5249.27 2949.74 Q5246.84 2950.51 5244.06 2952.06 L5244.06 2947.34 Q5246.89 2946.2 5249.34 2945.62 Q5251.8 2945.05 5253.83 2945.05 Q5259.2 2945.05 5262.4 2947.73 Q5265.59 2950.42 5265.59 2954.91 Q5265.59 2957.04 5264.78 2958.96 Q5264 2960.86 5261.89 2963.45 Q5261.31 2964.12 5258.21 2967.34 Q5255.11 2970.53 5249.46 2976.3 Z" fill="#000000" fill-rule="nonzero" fill-opacity="1" /><path clip-path="url(#clip710)" d="M5285.59 2948.75 Q5281.98 2948.75 5280.15 2952.31 Q5278.35 2955.86 5278.35 2962.99 Q5278.35 2970.09 5280.15 2973.66 Q5281.98 2977.2 5285.59 2977.2 Q5289.23 2977.2 5291.03 2973.66 Q5292.86 2970.09 5292.86 2962.99 Q5292.86 2955.86 5291.03 2952.31 Q5289.23 2948.75 5285.59 2948.75 M5285.59 2945.05 Q5291.4 2945.05 5294.46 2949.65 Q5297.54 2954.24 5297.54 2962.99 Q5297.54 2971.71 5294.46 2976.32 Q5291.4 2980.9 5285.59 2980.9 Q5279.78 2980.9 5276.7 2976.32 Q5273.65 2971.71 5273.65 2962.99 Q5273.65 2954.24 5276.7 2949.65 Q5279.78 2945.05 5285.59 2945.05 Z" fill="#000000" fill-rule="nonzero" fill-opacity="1" /><path clip-path="url(#clip710)" d="M2775.33 3038.37 L2775.33 3048.49 L2787.39 3048.49 L2787.39 3053.05 L2775.33 3053.05 L2775.33 3072.4 Q2775.33 3076.76 2776.51 3078 Q2777.72 3079.24 2781.38 3079.24 L2787.39 3079.24 L2787.39 3084.14 L2781.38 3084.14 Q2774.6 3084.14 2772.02 3081.63 Q2769.44 3079.08 2769.44 3072.4 L2769.44 3053.05 L2765.14 3053.05 L2765.14 3048.49 L2769.44 3048.49 L2769.44 3038.37 L2775.33 3038.37 Z" fill="#000000" fill-rule="nonzero" fill-opacity="1" /><path clip-path="url(#clip710)" d="M2795.1 3048.49 L2800.95 3048.49 L2800.95 3084.14 L2795.1 3084.14 L2795.1 3048.49 M2795.1 3034.62 L2800.95 3034.62 L2800.95 3042.03 L2795.1 3042.03 L2795.1 3034.62 Z" fill="#000000" fill-rule="nonzero" fill-opacity="1" /><path clip-path="url(#clip710)" d="M2840.96 3055.34 Q2843.16 3051.39 2846.21 3049.51 Q2849.27 3047.64 2853.41 3047.64 Q2858.98 3047.64 2862 3051.55 Q2865.02 3055.43 2865.02 3062.63 L2865.02 3084.14 L2859.13 3084.14 L2859.13 3062.82 Q2859.13 3057.69 2857.32 3055.21 Q2855.51 3052.73 2851.78 3052.73 Q2847.23 3052.73 2844.59 3055.75 Q2841.95 3058.78 2841.95 3064 L2841.95 3084.14 L2836.06 3084.14 L2836.06 3062.82 Q2836.06 3057.66 2834.24 3055.21 Q2832.43 3052.73 2828.64 3052.73 Q2824.16 3052.73 2821.51 3055.78 Q2818.87 3058.81 2818.87 3064 L2818.87 3084.14 L2812.98 3084.14 L2812.98 3048.49 L2818.87 3048.49 L2818.87 3054.03 Q2820.88 3050.75 2823.68 3049.19 Q2826.48 3047.64 2830.33 3047.64 Q2834.21 3047.64 2836.92 3049.61 Q2839.66 3051.58 2840.96 3055.34 Z" fill="#000000" fill-rule="nonzero" fill-opacity="1" /><path clip-path="url(#clip710)" d="M2907.2 3064.85 L2907.2 3067.72 L2880.27 3067.72 Q2880.65 3073.77 2883.9 3076.95 Q2887.18 3080.1 2893 3080.1 Q2896.37 3080.1 2899.53 3079.27 Q2902.71 3078.45 2905.83 3076.79 L2905.83 3082.33 Q2902.68 3083.67 2899.37 3084.37 Q2896.06 3085.07 2892.65 3085.07 Q2884.12 3085.07 2879.12 3080.1 Q2874.16 3075.14 2874.16 3066.67 Q2874.16 3057.92 2878.87 3052.79 Q2883.61 3047.64 2891.63 3047.64 Q2898.82 3047.64 2902.99 3052.28 Q2907.2 3056.9 2907.2 3064.85 M2901.34 3063.14 Q2901.28 3058.33 2898.63 3055.47 Q2896.02 3052.6 2891.7 3052.6 Q2886.79 3052.6 2883.83 3055.37 Q2880.91 3058.14 2880.46 3063.17 L2901.34 3063.14 Z" fill="#000000" fill-rule="nonzero" fill-opacity="1" /><polyline clip-path="url(#clip712)" style="stroke:#000000; stroke-linecap:round; stroke-linejoin:round; stroke-width:2; stroke-opacity:0.1; fill:none" points="255.585,2520.6 5416.76,2520.6 "/>
<polyline clip-path="url(#clip712)" style="stroke:#000000; stroke-linecap:round; stroke-linejoin:round; stroke-width:2; stroke-opacity:0.1; fill:none" points="255.585,2030.51 5416.76,2030.51 "/>
<polyline clip-path="url(#clip712)" style="stroke:#000000; stroke-linecap:round; stroke-linejoin:round; stroke-width:2; stroke-opacity:0.1; fill:none" points="255.585,1540.41 5416.76,1540.41 "/>
<polyline clip-path="url(#clip712)" style="stroke:#000000; stroke-linecap:round; stroke-linejoin:round; stroke-width:2; stroke-opacity:0.1; fill:none" points="255.585,1050.32 5416.76,1050.32 "/>
<polyline clip-path="url(#clip712)" style="stroke:#000000; stroke-linecap:round; stroke-linejoin:round; stroke-width:2; stroke-opacity:0.1; fill:none" points="255.585,560.228 5416.76,560.228 "/>
<polyline clip-path="url(#clip710)" style="stroke:#000000; stroke-linecap:round; stroke-linejoin:round; stroke-width:4; stroke-opacity:1; fill:none" points="255.585,2893.32 255.585,113.997 "/>
<polyline clip-path="url(#clip710)" style="stroke:#000000; stroke-linecap:round; stroke-linejoin:round; stroke-width:4; stroke-opacity:1; fill:none" points="255.585,2520.6 274.482,2520.6 "/>
<polyline clip-path="url(#clip710)" style="stroke:#000000; stroke-linecap:round; stroke-linejoin:round; stroke-width:4; stroke-opacity:1; fill:none" points="255.585,2030.51 274.482,2030.51 "/>
<polyline clip-path="url(#clip710)" style="stroke:#000000; stroke-linecap:round; stroke-linejoin:round; stroke-width:4; stroke-opacity:1; fill:none" points="255.585,1540.41 274.482,1540.41 "/>
<polyline clip-path="url(#clip710)" style="stroke:#000000; stroke-linecap:round; stroke-linejoin:round; stroke-width:4; stroke-opacity:1; fill:none" points="255.585,1050.32 274.482,1050.32 "/>
<polyline clip-path="url(#clip710)" style="stroke:#000000; stroke-linecap:round; stroke-linejoin:round; stroke-width:4; stroke-opacity:1; fill:none" points="255.585,560.228 274.482,560.228 "/>
<path clip-path="url(#clip710)" d="M131.519 2521.47 Q128.185 2521.47 126.264 2523.25 Q124.366 2525.04 124.366 2528.16 Q124.366 2531.29 126.264 2533.07 Q128.185 2534.85 131.519 2534.85 Q134.852 2534.85 136.773 2533.07 Q138.694 2531.26 138.694 2528.16 Q138.694 2525.04 136.773 2523.25 Q134.875 2521.47 131.519 2521.47 M126.843 2519.48 Q123.833 2518.74 122.144 2516.68 Q120.477 2514.62 120.477 2511.66 Q120.477 2507.51 123.417 2505.1 Q126.38 2502.7 131.519 2502.7 Q136.681 2502.7 139.62 2505.1 Q142.56 2507.51 142.56 2511.66 Q142.56 2514.62 140.87 2516.68 Q139.204 2518.74 136.218 2519.48 Q139.597 2520.27 141.472 2522.56 Q143.37 2524.85 143.37 2528.16 Q143.37 2533.18 140.292 2535.87 Q137.236 2538.55 131.519 2538.55 Q125.801 2538.55 122.722 2535.87 Q119.667 2533.18 119.667 2528.16 Q119.667 2524.85 121.565 2522.56 Q123.463 2520.27 126.843 2519.48 M125.13 2512.1 Q125.13 2514.78 126.796 2516.29 Q128.486 2517.79 131.519 2517.79 Q134.528 2517.79 136.218 2516.29 Q137.931 2514.78 137.931 2512.1 Q137.931 2509.41 136.218 2507.91 Q134.528 2506.4 131.519 2506.4 Q128.486 2506.4 126.796 2507.91 Q125.13 2509.41 125.13 2512.1 Z" fill="#000000" fill-rule="nonzero" fill-opacity="1" /><path clip-path="url(#clip710)" d="M161.68 2506.4 Q158.069 2506.4 156.241 2509.97 Q154.435 2513.51 154.435 2520.64 Q154.435 2527.74 156.241 2531.31 Q158.069 2534.85 161.68 2534.85 Q165.315 2534.85 167.12 2531.31 Q168.949 2527.74 168.949 2520.64 Q168.949 2513.51 167.12 2509.97 Q165.315 2506.4 161.68 2506.4 M161.68 2502.7 Q167.491 2502.7 170.546 2507.3 Q173.625 2511.89 173.625 2520.64 Q173.625 2529.36 170.546 2533.97 Q167.491 2538.55 161.68 2538.55 Q155.87 2538.55 152.792 2533.97 Q149.736 2529.36 149.736 2520.64 Q149.736 2511.89 152.792 2507.3 Q155.87 2502.7 161.68 2502.7 Z" fill="#000000" fill-rule="nonzero" fill-opacity="1" /><path clip-path="url(#clip710)" d="M92.1669 2043.85 L99.8057 2043.85 L99.8057 2017.49 L91.4956 2019.15 L91.4956 2014.9 L99.7594 2013.23 L104.435 2013.23 L104.435 2043.85 L112.074 2043.85 L112.074 2047.79 L92.1669 2047.79 L92.1669 2043.85 Z" fill="#000000" fill-rule="nonzero" fill-opacity="1" /><path clip-path="url(#clip710)" d="M131.519 2016.31 Q127.907 2016.31 126.079 2019.87 Q124.273 2023.41 124.273 2030.54 Q124.273 2037.65 126.079 2041.21 Q127.907 2044.76 131.519 2044.76 Q135.153 2044.76 136.958 2041.21 Q138.787 2037.65 138.787 2030.54 Q138.787 2023.41 136.958 2019.87 Q135.153 2016.31 131.519 2016.31 M131.519 2012.6 Q137.329 2012.6 140.384 2017.21 Q143.463 2021.79 143.463 2030.54 Q143.463 2039.27 140.384 2043.88 Q137.329 2048.46 131.519 2048.46 Q125.708 2048.46 122.63 2043.88 Q119.574 2039.27 119.574 2030.54 Q119.574 2021.79 122.63 2017.21 Q125.708 2012.6 131.519 2012.6 Z" fill="#000000" fill-rule="nonzero" fill-opacity="1" /><path clip-path="url(#clip710)" d="M161.68 2016.31 Q158.069 2016.31 156.241 2019.87 Q154.435 2023.41 154.435 2030.54 Q154.435 2037.65 156.241 2041.21 Q158.069 2044.76 161.68 2044.76 Q165.315 2044.76 167.12 2041.21 Q168.949 2037.65 168.949 2030.54 Q168.949 2023.41 167.12 2019.87 Q165.315 2016.31 161.68 2016.31 M161.68 2012.6 Q167.491 2012.6 170.546 2017.21 Q173.625 2021.79 173.625 2030.54 Q173.625 2039.27 170.546 2043.88 Q167.491 2048.46 161.68 2048.46 Q155.87 2048.46 152.792 2043.88 Q149.736 2039.27 149.736 2030.54 Q149.736 2021.79 152.792 2017.21 Q155.87 2012.6 161.68 2012.6 Z" fill="#000000" fill-rule="nonzero" fill-opacity="1" /><path clip-path="url(#clip710)" d="M92.1669 1553.76 L99.8057 1553.76 L99.8057 1527.39 L91.4956 1529.06 L91.4956 1524.8 L99.7594 1523.13 L104.435 1523.13 L104.435 1553.76 L112.074 1553.76 L112.074 1557.69 L92.1669 1557.69 L92.1669 1553.76 Z" fill="#000000" fill-rule="nonzero" fill-opacity="1" /><path clip-path="url(#clip710)" d="M125.546 1553.76 L141.866 1553.76 L141.866 1557.69 L119.921 1557.69 L119.921 1553.76 Q122.583 1551.01 127.167 1546.38 Q131.773 1541.72 132.954 1540.38 Q135.199 1537.86 136.079 1536.12 Q136.981 1534.36 136.981 1532.67 Q136.981 1529.92 135.037 1528.18 Q133.116 1526.45 130.014 1526.45 Q127.815 1526.45 125.361 1527.21 Q122.931 1527.97 120.153 1529.52 L120.153 1524.8 Q122.977 1523.67 125.431 1523.09 Q127.884 1522.51 129.921 1522.51 Q135.292 1522.51 138.486 1525.2 Q141.681 1527.88 141.681 1532.37 Q141.681 1534.5 140.87 1536.42 Q140.083 1538.32 137.977 1540.91 Q137.398 1541.58 134.296 1544.8 Q131.194 1548 125.546 1553.76 Z" fill="#000000" fill-rule="nonzero" fill-opacity="1" /><path clip-path="url(#clip710)" d="M161.68 1526.21 Q158.069 1526.21 156.241 1529.78 Q154.435 1533.32 154.435 1540.45 Q154.435 1547.56 156.241 1551.12 Q158.069 1554.66 161.68 1554.66 Q165.315 1554.66 167.12 1551.12 Q168.949 1547.56 168.949 1540.45 Q168.949 1533.32 167.12 1529.78 Q165.315 1526.21 161.68 1526.21 M161.68 1522.51 Q167.491 1522.51 170.546 1527.12 Q173.625 1531.7 173.625 1540.45 Q173.625 1549.18 170.546 1553.78 Q167.491 1558.37 161.68 1558.37 Q155.87 1558.37 152.792 1553.78 Q149.736 1549.18 149.736 1540.45 Q149.736 1531.7 152.792 1527.12 Q155.87 1522.51 161.68 1522.51 Z" fill="#000000" fill-rule="nonzero" fill-opacity="1" /><path clip-path="url(#clip710)" d="M92.1669 1063.67 L99.8057 1063.67 L99.8057 1037.3 L91.4956 1038.97 L91.4956 1034.71 L99.7594 1033.04 L104.435 1033.04 L104.435 1063.67 L112.074 1063.67 L112.074 1067.6 L92.1669 1067.6 L92.1669 1063.67 Z" fill="#000000" fill-rule="nonzero" fill-opacity="1" /><path clip-path="url(#clip710)" d="M134.366 1037.12 L122.56 1055.56 L134.366 1055.56 L134.366 1037.12 M133.139 1033.04 L139.018 1033.04 L139.018 1055.56 L143.949 1055.56 L143.949 1059.45 L139.018 1059.45 L139.018 1067.6 L134.366 1067.6 L134.366 1059.45 L118.764 1059.45 L118.764 1054.94 L133.139 1033.04 Z" fill="#000000" fill-rule="nonzero" fill-opacity="1" /><path clip-path="url(#clip710)" d="M161.68 1036.12 Q158.069 1036.12 156.241 1039.68 Q154.435 1043.23 154.435 1050.36 Q154.435 1057.46 156.241 1061.03 Q158.069 1064.57 161.68 1064.57 Q165.315 1064.57 167.12 1061.03 Q168.949 1057.46 168.949 1050.36 Q168.949 1043.23 167.12 1039.68 Q165.315 1036.12 161.68 1036.12 M161.68 1032.42 Q167.491 1032.42 170.546 1037.02 Q173.625 1041.61 173.625 1050.36 Q173.625 1059.08 170.546 1063.69 Q167.491 1068.27 161.68 1068.27 Q155.87 1068.27 152.792 1063.69 Q149.736 1059.08 149.736 1050.36 Q149.736 1041.61 152.792 1037.02 Q155.87 1032.42 161.68 1032.42 Z" fill="#000000" fill-rule="nonzero" fill-opacity="1" /><path clip-path="url(#clip710)" d="M92.1669 573.572 L99.8057 573.572 L99.8057 547.207 L91.4956 548.873 L91.4956 544.614 L99.7594 542.948 L104.435 542.948 L104.435 573.572 L112.074 573.572 L112.074 577.508 L92.1669 577.508 L92.1669 573.572 Z" fill="#000000" fill-rule="nonzero" fill-opacity="1" /><path clip-path="url(#clip710)" d="M132.097 558.364 Q128.949 558.364 127.097 560.517 Q125.269 562.67 125.269 566.42 Q125.269 570.146 127.097 572.322 Q128.949 574.475 132.097 574.475 Q135.245 574.475 137.074 572.322 Q138.926 570.146 138.926 566.42 Q138.926 562.67 137.074 560.517 Q135.245 558.364 132.097 558.364 M141.38 543.711 L141.38 547.971 Q139.62 547.137 137.815 546.698 Q136.032 546.258 134.273 546.258 Q129.644 546.258 127.19 549.383 Q124.759 552.508 124.412 558.827 Q125.778 556.813 127.838 555.748 Q129.898 554.66 132.375 554.66 Q137.583 554.66 140.593 557.832 Q143.625 560.98 143.625 566.42 Q143.625 571.744 140.477 574.961 Q137.329 578.179 132.097 578.179 Q126.102 578.179 122.931 573.596 Q119.759 568.989 119.759 560.262 Q119.759 552.068 123.648 547.207 Q127.537 542.323 134.088 542.323 Q135.847 542.323 137.63 542.67 Q139.435 543.017 141.38 543.711 Z" fill="#000000" fill-rule="nonzero" fill-opacity="1" /><path clip-path="url(#clip710)" d="M161.68 546.026 Q158.069 546.026 156.241 549.591 Q154.435 553.133 154.435 560.262 Q154.435 567.369 156.241 570.934 Q158.069 574.475 161.68 574.475 Q165.315 574.475 167.12 570.934 Q168.949 567.369 168.949 560.262 Q168.949 553.133 167.12 549.591 Q165.315 546.026 161.68 546.026 M161.68 542.323 Q167.491 542.323 170.546 546.929 Q173.625 551.512 173.625 560.262 Q173.625 568.989 170.546 573.596 Q167.491 578.179 161.68 578.179 Q155.87 578.179 152.792 573.596 Q149.736 568.989 149.736 560.262 Q149.736 551.512 152.792 546.929 Q155.87 542.323 161.68 542.323 Z" fill="#000000" fill-rule="nonzero" fill-opacity="1" /><path clip-path="url(#clip710)" d="M-36.2625 1693.64 Q-36.2625 1698.35 -32.5704 1701.09 Q-28.9101 1703.83 -22.5126 1703.83 Q-16.115 1703.83 -12.4229 1701.12 Q-8.76263 1698.38 -8.76263 1693.64 Q-8.76263 1688.96 -12.4547 1686.23 Q-16.1469 1683.49 -22.5126 1683.49 Q-28.8464 1683.49 -32.5385 1686.23 Q-36.2625 1688.96 -36.2625 1693.64 M-41.2277 1693.64 Q-41.2277 1686 -36.2625 1681.64 Q-31.2972 1677.28 -22.5126 1677.28 Q-13.7597 1677.28 -8.76263 1681.64 Q-3.79738 1686 -3.79738 1693.64 Q-3.79738 1701.31 -8.76263 1705.67 Q-13.7597 1710 -22.5126 1710 Q-31.2972 1710 -36.2625 1705.67 Q-41.2277 1701.31 -41.2277 1693.64 Z" fill="#000000" fill-rule="nonzero" fill-opacity="1" /><path clip-path="url(#clip710)" d="M-22.5126 1641.98 Q-28.9738 1641.98 -32.634 1644.66 Q-36.3261 1647.3 -36.3261 1651.95 Q-36.3261 1656.59 -32.634 1659.27 Q-28.9738 1661.91 -22.5126 1661.91 Q-16.0514 1661.91 -12.3593 1659.27 Q-8.69898 1656.59 -8.69898 1651.95 Q-8.69898 1647.3 -12.3593 1644.66 Q-16.0514 1641.98 -22.5126 1641.98 M-34.9575 1661.91 Q-38.1404 1660.06 -39.6681 1657.26 Q-41.2277 1654.43 -41.2277 1650.51 Q-41.2277 1644.02 -36.0715 1639.98 Q-30.9153 1635.91 -22.5126 1635.91 Q-14.1098 1635.91 -8.95361 1639.98 Q-3.79738 1644.02 -3.79738 1650.51 Q-3.79738 1654.43 -5.32515 1657.26 Q-6.88475 1660.06 -10.0676 1661.91 L-4.72041 1661.91 L-4.72041 1667.8 L-54.2456 1667.8 L-54.2456 1661.91 L-34.9575 1661.91 Z" fill="#000000" fill-rule="nonzero" fill-opacity="1" /><path clip-path="url(#clip710)" d="M-39.318 1603.47 L-33.7799 1603.47 Q-35.053 1605.95 -35.6896 1608.63 Q-36.3261 1611.3 -36.3261 1614.17 Q-36.3261 1618.53 -34.9893 1620.72 Q-33.6525 1622.89 -30.979 1622.89 Q-28.9419 1622.89 -27.7643 1621.33 Q-26.6184 1619.77 -25.5681 1615.06 L-25.1225 1613.05 Q-23.7857 1606.81 -21.3349 1604.2 Q-18.9159 1601.56 -14.5554 1601.56 Q-9.59018 1601.56 -6.69378 1605.51 Q-3.79738 1609.42 -3.79738 1616.3 Q-3.79738 1619.16 -4.3703 1622.28 Q-4.91138 1625.37 -6.02538 1628.81 L-12.0728 1628.81 Q-10.3859 1625.56 -9.52652 1622.41 Q-8.69898 1619.26 -8.69898 1616.17 Q-8.69898 1612.03 -10.0994 1609.81 Q-11.5317 1607.58 -14.1098 1607.58 Q-16.497 1607.58 -17.7701 1609.2 Q-19.0433 1610.79 -20.2209 1616.24 L-20.6983 1618.27 Q-21.8442 1623.72 -24.1995 1626.13 Q-26.5866 1628.55 -30.7243 1628.55 Q-35.7532 1628.55 -38.4905 1624.99 Q-41.2277 1621.42 -41.2277 1614.87 Q-41.2277 1611.62 -40.7503 1608.76 Q-40.2729 1605.89 -39.318 1603.47 Z" fill="#000000" fill-rule="nonzero" fill-opacity="1" /><path clip-path="url(#clip710)" d="M-24.0085 1561.75 L-21.1439 1561.75 L-21.1439 1588.67 Q-15.0965 1588.29 -11.9137 1585.04 Q-8.76263 1581.77 -8.76263 1575.94 Q-8.76263 1572.57 -9.59018 1569.42 Q-10.4177 1566.23 -12.0728 1563.11 L-6.53464 1563.11 Q-5.19784 1566.26 -4.49761 1569.57 Q-3.79738 1572.88 -3.79738 1576.29 Q-3.79738 1584.82 -8.76263 1589.82 Q-13.7279 1594.78 -22.1943 1594.78 Q-30.9471 1594.78 -36.0715 1590.07 Q-41.2277 1585.33 -41.2277 1577.31 Q-41.2277 1570.12 -36.5808 1565.95 Q-31.9656 1561.75 -24.0085 1561.75 M-25.7272 1567.6 Q-30.5334 1567.67 -33.3979 1570.31 Q-36.2625 1572.92 -36.2625 1577.25 Q-36.2625 1582.15 -33.4934 1585.11 Q-30.7243 1588.04 -25.6954 1588.48 L-25.7272 1567.6 Z" fill="#000000" fill-rule="nonzero" fill-opacity="1" /><path clip-path="url(#clip710)" d="M-34.8939 1531.48 Q-35.4668 1532.46 -35.7214 1533.64 Q-36.0079 1534.79 -36.0079 1536.19 Q-36.0079 1541.15 -32.7613 1543.83 Q-29.5467 1546.47 -23.4992 1546.47 L-4.72041 1546.47 L-4.72041 1552.36 L-40.3684 1552.36 L-40.3684 1546.47 L-34.8302 1546.47 Q-38.0767 1544.62 -39.6363 1541.66 Q-41.2277 1538.7 -41.2277 1534.47 Q-41.2277 1533.86 -41.1323 1533.13 Q-41.0686 1532.4 -40.9095 1531.51 L-34.8939 1531.48 Z" fill="#000000" fill-rule="nonzero" fill-opacity="1" /><path clip-path="url(#clip710)" d="M-40.3684 1529.53 L-40.3684 1523.33 L-10.4495 1512.19 L-40.3684 1501.05 L-40.3684 1494.84 L-4.72041 1508.21 L-4.72041 1516.17 L-40.3684 1529.53 Z" fill="#000000" fill-rule="nonzero" fill-opacity="1" /><path clip-path="url(#clip710)" d="M-22.6399 1470.56 Q-22.6399 1477.65 -21.0166 1480.39 Q-19.3934 1483.13 -15.4785 1483.13 Q-12.3593 1483.13 -10.5132 1481.09 Q-8.69898 1479.02 -8.69898 1475.49 Q-8.69898 1470.62 -12.1365 1467.69 Q-15.6058 1464.73 -21.3349 1464.73 L-22.6399 1464.73 L-22.6399 1470.56 M-25.0588 1458.88 L-4.72041 1458.88 L-4.72041 1464.73 L-10.1313 1464.73 Q-6.88475 1466.74 -5.32515 1469.73 Q-3.79738 1472.72 -3.79738 1477.05 Q-3.79738 1482.52 -6.85292 1485.77 Q-9.94029 1488.98 -15.0965 1488.98 Q-21.1121 1488.98 -24.1676 1484.97 Q-27.2232 1480.93 -27.2232 1472.94 L-27.2232 1464.73 L-27.7961 1464.73 Q-31.8383 1464.73 -34.0345 1467.41 Q-36.2625 1470.05 -36.2625 1474.85 Q-36.2625 1477.91 -35.5304 1480.81 Q-34.7984 1483.7 -33.3343 1486.38 L-38.7451 1486.38 Q-39.9864 1483.16 -40.5912 1480.14 Q-41.2277 1477.11 -41.2277 1474.25 Q-41.2277 1466.51 -37.2173 1462.69 Q-33.2069 1458.88 -25.0588 1458.88 Z" fill="#000000" fill-rule="nonzero" fill-opacity="1" /><path clip-path="url(#clip710)" d="M-50.4898 1441.02 L-40.3684 1441.02 L-40.3684 1428.96 L-35.8169 1428.96 L-35.8169 1441.02 L-16.4651 1441.02 Q-12.1046 1441.02 -10.8633 1439.84 Q-9.622 1438.63 -9.622 1434.97 L-9.622 1428.96 L-4.72041 1428.96 L-4.72041 1434.97 Q-4.72041 1441.75 -7.23486 1444.33 Q-9.78115 1446.91 -16.4651 1446.91 L-35.8169 1446.91 L-35.8169 1451.2 L-40.3684 1451.2 L-40.3684 1446.91 L-50.4898 1446.91 L-50.4898 1441.02 Z" fill="#000000" fill-rule="nonzero" fill-opacity="1" /><path clip-path="url(#clip710)" d="M-40.3684 1421.25 L-40.3684 1415.4 L-4.72041 1415.4 L-4.72041 1421.25 L-40.3684 1421.25 M-54.2456 1421.25 L-54.2456 1415.4 L-46.8296 1415.4 L-46.8296 1421.25 L-54.2456 1421.25 Z" fill="#000000" fill-rule="nonzero" fill-opacity="1" /><path clip-path="url(#clip710)" d="M-36.2625 1389.33 Q-36.2625 1394.04 -32.5704 1396.78 Q-28.9101 1399.51 -22.5126 1399.51 Q-16.115 1399.51 -12.4229 1396.81 Q-8.76263 1394.07 -8.76263 1389.33 Q-8.76263 1384.65 -12.4547 1381.91 Q-16.1469 1379.18 -22.5126 1379.18 Q-28.8464 1379.18 -32.5385 1381.91 Q-36.2625 1384.65 -36.2625 1389.33 M-41.2277 1389.33 Q-41.2277 1381.69 -36.2625 1377.33 Q-31.2972 1372.97 -22.5126 1372.97 Q-13.7597 1372.97 -8.76263 1377.33 Q-3.79738 1381.69 -3.79738 1389.33 Q-3.79738 1397 -8.76263 1401.36 Q-13.7597 1405.69 -22.5126 1405.69 Q-31.2972 1405.69 -36.2625 1401.36 Q-41.2277 1397 -41.2277 1389.33 Z" fill="#000000" fill-rule="nonzero" fill-opacity="1" /><path clip-path="url(#clip710)" d="M-26.2365 1333.63 L-4.72041 1333.63 L-4.72041 1339.49 L-26.0455 1339.49 Q-31.1063 1339.49 -33.6207 1341.46 Q-36.1352 1343.43 -36.1352 1347.38 Q-36.1352 1352.12 -33.1115 1354.86 Q-30.0878 1357.6 -24.8679 1357.6 L-4.72041 1357.6 L-4.72041 1363.49 L-40.3684 1363.49 L-40.3684 1357.6 L-34.8302 1357.6 Q-38.0449 1355.5 -39.6363 1352.66 Q-41.2277 1349.8 -41.2277 1346.07 Q-41.2277 1339.93 -37.4083 1336.78 Q-33.6207 1333.63 -26.2365 1333.63 Z" fill="#000000" fill-rule="nonzero" fill-opacity="1" /><path clip-path="url(#clip710)" d="M-39.318 1299.22 L-33.7799 1299.22 Q-35.053 1301.71 -35.6896 1304.38 Q-36.3261 1307.05 -36.3261 1309.92 Q-36.3261 1314.28 -34.9893 1316.47 Q-33.6525 1318.64 -30.979 1318.64 Q-28.9419 1318.64 -27.7643 1317.08 Q-26.6184 1315.52 -25.5681 1310.81 L-25.1225 1308.8 Q-23.7857 1302.57 -21.3349 1299.96 Q-18.9159 1297.31 -14.5554 1297.31 Q-9.59018 1297.31 -6.69378 1301.26 Q-3.79738 1305.18 -3.79738 1312.05 Q-3.79738 1314.91 -4.3703 1318.03 Q-4.91138 1321.12 -6.02538 1324.56 L-12.0728 1324.56 Q-10.3859 1321.31 -9.52652 1318.16 Q-8.69898 1315.01 -8.69898 1311.92 Q-8.69898 1307.79 -10.0994 1305.56 Q-11.5317 1303.33 -14.1098 1303.33 Q-16.497 1303.33 -17.7701 1304.95 Q-19.0433 1306.54 -20.2209 1311.99 L-20.6983 1314.02 Q-21.8442 1319.47 -24.1995 1321.89 Q-26.5866 1324.3 -30.7243 1324.3 Q-35.7532 1324.3 -38.4905 1320.74 Q-41.2277 1317.17 -41.2277 1310.62 Q-41.2277 1307.37 -40.7503 1304.51 Q-40.2729 1301.64 -39.318 1299.22 Z" fill="#000000" fill-rule="nonzero" fill-opacity="1" /><path clip-path="url(#clip710)" d="M2634.03 28.5427 L2634.03 35.5912 Q2630.87 33.9709 2627.47 33.1607 Q2624.06 32.3505 2620.42 32.3505 Q2614.87 32.3505 2612.07 34.0519 Q2609.32 35.7533 2609.32 39.156 Q2609.32 41.7486 2611.3 43.2475 Q2613.29 44.7058 2619.28 46.0426 L2621.84 46.6097 Q2629.78 48.3111 2633.1 51.4303 Q2636.46 54.509 2636.46 60.0587 Q2636.46 66.3781 2631.44 70.0644 Q2626.46 73.7508 2617.71 73.7508 Q2614.06 73.7508 2610.09 73.0216 Q2606.16 72.3329 2601.79 70.9151 L2601.79 63.2184 Q2605.92 65.3654 2609.93 66.4591 Q2613.94 67.5124 2617.87 67.5124 Q2623.13 67.5124 2625.97 65.73 Q2628.8 63.9071 2628.8 60.6258 Q2628.8 57.5877 2626.74 55.9673 Q2624.71 54.3469 2617.79 52.8481 L2615.19 52.2405 Q2608.27 50.7821 2605.19 47.7845 Q2602.11 44.7463 2602.11 39.4801 Q2602.11 33.0797 2606.65 29.5959 Q2611.18 26.1121 2619.53 26.1121 Q2623.66 26.1121 2627.31 26.7198 Q2630.95 27.3274 2634.03 28.5427 Z" fill="#000000" fill-rule="nonzero" fill-opacity="1" /><path clip-path="url(#clip710)" d="M2680.98 28.9478 L2680.98 35.9153 Q2677.82 34.1734 2674.62 33.3227 Q2671.46 32.4315 2668.22 32.4315 Q2660.97 32.4315 2656.96 37.0496 Q2652.95 41.6271 2652.95 49.9314 Q2652.95 58.2358 2656.96 62.8538 Q2660.97 67.4314 2668.22 67.4314 Q2671.46 67.4314 2674.62 66.5807 Q2677.82 65.6895 2680.98 63.9476 L2680.98 70.8341 Q2677.86 72.2924 2674.5 73.0216 Q2671.18 73.7508 2667.41 73.7508 Q2657.16 73.7508 2651.13 67.3098 Q2645.09 60.8689 2645.09 49.9314 Q2645.09 38.832 2651.17 32.472 Q2657.28 26.1121 2667.9 26.1121 Q2671.34 26.1121 2674.62 26.8413 Q2677.9 27.5299 2680.98 28.9478 Z" fill="#000000" fill-rule="nonzero" fill-opacity="1" /><path clip-path="url(#clip710)" d="M2714.56 49.7694 Q2705.53 49.7694 2702.04 51.8354 Q2698.56 53.9013 2698.56 58.8839 Q2698.56 62.8538 2701.15 65.2034 Q2703.79 67.5124 2708.28 67.5124 Q2714.48 67.5124 2718.21 63.1374 Q2721.98 58.7219 2721.98 51.4303 L2721.98 49.7694 L2714.56 49.7694 M2729.43 46.6907 L2729.43 72.576 L2721.98 72.576 L2721.98 65.6895 Q2719.42 69.8214 2715.62 71.8063 Q2711.81 73.7508 2706.3 73.7508 Q2699.33 73.7508 2695.2 69.8619 Q2691.11 65.9325 2691.11 59.3701 Q2691.11 51.7138 2696.21 47.825 Q2701.36 43.9361 2711.52 43.9361 L2721.98 43.9361 L2721.98 43.2069 Q2721.98 38.0623 2718.57 35.2672 Q2715.21 32.4315 2709.09 32.4315 Q2705.2 32.4315 2701.52 33.3632 Q2697.83 34.295 2694.43 36.1584 L2694.43 29.2718 Q2698.52 27.692 2702.37 26.9223 Q2706.22 26.1121 2709.86 26.1121 Q2719.71 26.1121 2724.57 31.2163 Q2729.43 36.3204 2729.43 46.6907 Z" fill="#000000" fill-rule="nonzero" fill-opacity="1" /><path clip-path="url(#clip710)" d="M2752.15 14.324 L2752.15 27.2059 L2767.51 27.2059 L2767.51 32.9987 L2752.15 32.9987 L2752.15 57.6282 Q2752.15 63.1779 2753.65 64.7578 Q2755.19 66.3376 2759.85 66.3376 L2767.51 66.3376 L2767.51 72.576 L2759.85 72.576 Q2751.22 72.576 2747.94 69.3758 Q2744.66 66.1351 2744.66 57.6282 L2744.66 32.9987 L2739.19 32.9987 L2739.19 27.2059 L2744.66 27.2059 L2744.66 14.324 L2752.15 14.324 Z" fill="#000000" fill-rule="nonzero" fill-opacity="1" /><path clip-path="url(#clip710)" d="M2784.68 14.324 L2784.68 27.2059 L2800.04 27.2059 L2800.04 32.9987 L2784.68 32.9987 L2784.68 57.6282 Q2784.68 63.1779 2786.18 64.7578 Q2787.72 66.3376 2792.38 66.3376 L2800.04 66.3376 L2800.04 72.576 L2792.38 72.576 Q2783.75 72.576 2780.47 69.3758 Q2777.19 66.1351 2777.19 57.6282 L2777.19 32.9987 L2771.72 32.9987 L2771.72 27.2059 L2777.19 27.2059 L2777.19 14.324 L2784.68 14.324 Z" fill="#000000" fill-rule="nonzero" fill-opacity="1" /><path clip-path="url(#clip710)" d="M2848.65 48.0275 L2848.65 51.6733 L2814.38 51.6733 Q2814.86 59.3701 2818.99 63.421 Q2823.17 67.4314 2830.58 67.4314 Q2834.87 67.4314 2838.88 66.3781 Q2842.94 65.3249 2846.91 63.2184 L2846.91 70.267 Q2842.89 71.9684 2838.68 72.8596 Q2834.47 73.7508 2830.13 73.7508 Q2819.28 73.7508 2812.92 67.4314 Q2806.6 61.1119 2806.6 50.3365 Q2806.6 39.1965 2812.59 32.6746 Q2818.63 26.1121 2828.84 26.1121 Q2837.99 26.1121 2843.3 32.0264 Q2848.65 37.9003 2848.65 48.0275 M2841.19 45.84 Q2841.11 39.7232 2837.75 36.0774 Q2834.43 32.4315 2828.92 32.4315 Q2822.68 32.4315 2818.91 35.9558 Q2815.19 39.4801 2814.62 45.8805 L2841.19 45.84 Z" fill="#000000" fill-rule="nonzero" fill-opacity="1" /><path clip-path="url(#clip710)" d="M2887.17 34.1734 Q2885.92 33.4443 2884.42 33.1202 Q2882.96 32.7556 2881.18 32.7556 Q2874.86 32.7556 2871.45 36.8875 Q2868.09 40.9789 2868.09 48.6757 L2868.09 72.576 L2860.6 72.576 L2860.6 27.2059 L2868.09 27.2059 L2868.09 34.2544 Q2870.44 30.1225 2874.21 28.1376 Q2877.98 26.1121 2883.36 26.1121 Q2884.13 26.1121 2885.06 26.2337 Q2886 26.3147 2887.13 26.5172 L2887.17 34.1734 Z" fill="#000000" fill-rule="nonzero" fill-opacity="1" /><path clip-path="url(#clip710)" d="M2928.57 65.7705 L2928.57 89.8329 L2921.08 89.8329 L2921.08 27.2059 L2928.57 27.2059 L2928.57 34.0924 Q2930.92 30.0415 2934.49 28.0971 Q2938.09 26.1121 2943.07 26.1121 Q2951.34 26.1121 2956.48 32.6746 Q2961.67 39.2371 2961.67 49.9314 Q2961.67 60.6258 2956.48 67.1883 Q2951.34 73.7508 2943.07 73.7508 Q2938.09 73.7508 2934.49 71.8063 Q2930.92 69.8214 2928.57 65.7705 M2953.93 49.9314 Q2953.93 41.7081 2950.53 37.0496 Q2947.17 32.3505 2941.25 32.3505 Q2935.34 32.3505 2931.93 37.0496 Q2928.57 41.7081 2928.57 49.9314 Q2928.57 58.1548 2931.93 62.8538 Q2935.34 67.5124 2941.25 67.5124 Q2947.17 67.5124 2950.53 62.8538 Q2953.93 58.1548 2953.93 49.9314 Z" fill="#000000" fill-rule="nonzero" fill-opacity="1" /><path clip-path="url(#clip710)" d="M2974.02 9.54393 L2981.48 9.54393 L2981.48 72.576 L2974.02 72.576 L2974.02 9.54393 Z" fill="#000000" fill-rule="nonzero" fill-opacity="1" /><path clip-path="url(#clip710)" d="M3014.65 32.4315 Q3008.66 32.4315 3005.17 37.1306 Q3001.69 41.7891 3001.69 49.9314 Q3001.69 58.0738 3005.13 62.7728 Q3008.62 67.4314 3014.65 67.4314 Q3020.61 67.4314 3024.09 62.7323 Q3027.58 58.0333 3027.58 49.9314 Q3027.58 41.8701 3024.09 37.1711 Q3020.61 32.4315 3014.65 32.4315 M3014.65 26.1121 Q3024.38 26.1121 3029.93 32.4315 Q3035.47 38.7509 3035.47 49.9314 Q3035.47 61.0714 3029.93 67.4314 Q3024.38 73.7508 3014.65 73.7508 Q3004.89 73.7508 2999.34 67.4314 Q2993.83 61.0714 2993.83 49.9314 Q2993.83 38.7509 2999.34 32.4315 Q3004.89 26.1121 3014.65 26.1121 Z" fill="#000000" fill-rule="nonzero" fill-opacity="1" /><path clip-path="url(#clip710)" d="M3055.2 14.324 L3055.2 27.2059 L3070.56 27.2059 L3070.56 32.9987 L3055.2 32.9987 L3055.2 57.6282 Q3055.2 63.1779 3056.7 64.7578 Q3058.24 66.3376 3062.9 66.3376 L3070.56 66.3376 L3070.56 72.576 L3062.9 72.576 Q3054.27 72.576 3050.99 69.3758 Q3047.71 66.1351 3047.71 57.6282 L3047.71 32.9987 L3042.24 32.9987 L3042.24 27.2059 L3047.71 27.2059 L3047.71 14.324 L3055.2 14.324 Z" fill="#000000" fill-rule="nonzero" fill-opacity="1" /><circle clip-path="url(#clip712)" cx="401.656" cy="952.303" r="14.4" fill="#0000ff" fill-rule="evenodd" fill-opacity="0.5" stroke="#000000" stroke-opacity="0.5" stroke-width="6.144"/>
<circle clip-path="url(#clip712)" cx="657.92" cy="780.77" r="14.4" fill="#0000ff" fill-rule="evenodd" fill-opacity="0.5" stroke="#000000" stroke-opacity="0.5" stroke-width="6.144"/>
<circle clip-path="url(#clip712)" cx="914.185" cy="633.742" r="14.4" fill="#0000ff" fill-rule="evenodd" fill-opacity="0.5" stroke="#000000" stroke-opacity="0.5" stroke-width="6.144"/>
<circle clip-path="url(#clip712)" cx="1170.45" cy="315.181" r="14.4" fill="#0000ff" fill-rule="evenodd" fill-opacity="0.5" stroke="#000000" stroke-opacity="0.5" stroke-width="6.144"/>
<circle clip-path="url(#clip712)" cx="1426.71" cy="756.265" r="14.4" fill="#0000ff" fill-rule="evenodd" fill-opacity="0.5" stroke="#000000" stroke-opacity="0.5" stroke-width="6.144"/>
<circle clip-path="url(#clip712)" cx="1682.98" cy="927.798" r="14.4" fill="#0000ff" fill-rule="evenodd" fill-opacity="0.5" stroke="#000000" stroke-opacity="0.5" stroke-width="6.144"/>
<circle clip-path="url(#clip712)" cx="1939.24" cy="192.657" r="14.4" fill="#0000ff" fill-rule="evenodd" fill-opacity="0.5" stroke="#000000" stroke-opacity="0.5" stroke-width="6.144"/>
<circle clip-path="url(#clip712)" cx="2195.51" cy="829.779" r="14.4" fill="#0000ff" fill-rule="evenodd" fill-opacity="0.5" stroke="#000000" stroke-opacity="0.5" stroke-width="6.144"/>
<circle clip-path="url(#clip712)" cx="2451.77" cy="2055.01" r="14.4" fill="#0000ff" fill-rule="evenodd" fill-opacity="0.5" stroke="#000000" stroke-opacity="0.5" stroke-width="6.144"/>
<circle clip-path="url(#clip712)" cx="2708.04" cy="1711.95" r="14.4" fill="#0000ff" fill-rule="evenodd" fill-opacity="0.5" stroke="#000000" stroke-opacity="0.5" stroke-width="6.144"/>
<circle clip-path="url(#clip712)" cx="2964.3" cy="1050.32" r="14.4" fill="#0000ff" fill-rule="evenodd" fill-opacity="0.5" stroke="#000000" stroke-opacity="0.5" stroke-width="6.144"/>
<circle clip-path="url(#clip712)" cx="3220.57" cy="1981.5" r="14.4" fill="#0000ff" fill-rule="evenodd" fill-opacity="0.5" stroke="#000000" stroke-opacity="0.5" stroke-width="6.144"/>
<circle clip-path="url(#clip712)" cx="3476.83" cy="1172.84" r="14.4" fill="#0000ff" fill-rule="evenodd" fill-opacity="0.5" stroke="#000000" stroke-opacity="0.5" stroke-width="6.144"/>
<circle clip-path="url(#clip712)" cx="3733.1" cy="829.779" r="14.4" fill="#0000ff" fill-rule="evenodd" fill-opacity="0.5" stroke="#000000" stroke-opacity="0.5" stroke-width="6.144"/>
<circle clip-path="url(#clip712)" cx="3989.36" cy="829.779" r="14.4" fill="#0000ff" fill-rule="evenodd" fill-opacity="0.5" stroke="#000000" stroke-opacity="0.5" stroke-width="6.144"/>
<circle clip-path="url(#clip712)" cx="4245.63" cy="2814.66" r="14.4" fill="#0000ff" fill-rule="evenodd" fill-opacity="0.5" stroke="#000000" stroke-opacity="0.5" stroke-width="6.144"/>
<circle clip-path="url(#clip712)" cx="4501.89" cy="1148.34" r="14.4" fill="#0000ff" fill-rule="evenodd" fill-opacity="0.5" stroke="#000000" stroke-opacity="0.5" stroke-width="6.144"/>
<circle clip-path="url(#clip712)" cx="4758.16" cy="952.303" r="14.4" fill="#0000ff" fill-rule="evenodd" fill-opacity="0.5" stroke="#000000" stroke-opacity="0.5" stroke-width="6.144"/>
<circle clip-path="url(#clip712)" cx="5014.42" cy="2716.64" r="14.4" fill="#0000ff" fill-rule="evenodd" fill-opacity="0.5" stroke="#000000" stroke-opacity="0.5" stroke-width="6.144"/>
<circle clip-path="url(#clip712)" cx="5270.69" cy="2104.02" r="14.4" fill="#0000ff" fill-rule="evenodd" fill-opacity="0.5" stroke="#000000" stroke-opacity="0.5" stroke-width="6.144"/>
<polyline clip-path="url(#clip712)" style="stroke:#ff0000; stroke-linecap:round; stroke-linejoin:round; stroke-width:4; stroke-opacity:1; fill:none" stroke-dasharray="16, 10" points="-4905.59,1978.5 10577.9,1978.5 "/>
<polyline clip-path="url(#clip712)" style="stroke:#ff0000; stroke-linecap:round; stroke-linejoin:round; stroke-width:4; stroke-opacity:1; fill:none" stroke-dasharray="16, 10" points="-4905.59,1237.78 10577.9,1237.78 "/>
<polyline clip-path="url(#clip712)" style="stroke:#ff0000; stroke-linecap:round; stroke-linejoin:round; stroke-width:4; stroke-opacity:1; fill:none" stroke-dasharray="16, 10" points="-4905.59,497.062 10577.9,497.062 "/>
<polyline clip-path="url(#clip712)" style="stroke:#ff0000; stroke-linecap:round; stroke-linejoin:round; stroke-width:4; stroke-opacity:0.5; fill:none" points="401.656,541.674 657.92,614.949 914.185,688.223 1170.45,761.498 1426.71,834.772 1682.98,908.047 1939.24,981.321 2195.51,1054.6 2451.77,1127.87 2708.04,1201.14 2964.3,1274.42 3220.57,1347.69 3476.83,1420.97 3733.1,1494.24 3989.36,1567.52 4245.63,1640.79 4501.89,1714.07 4758.16,1787.34 5014.42,1860.62 5270.69,1933.89 "/>
<polyline clip-path="url(#clip712)" style="stroke:#ffff00; stroke-linecap:round; stroke-linejoin:round; stroke-width:4; stroke-opacity:0.5; fill:none" points="401.656,541.674 657.92,614.949 914.185,688.223 1170.45,761.498 1426.71,834.772 1682.98,908.047 1939.24,981.321 2195.51,1054.6 2451.77,1127.87 2708.04,1201.14 2964.3,1274.42 3220.57,1347.69 3476.83,1420.97 3733.1,1494.24 3989.36,1567.52 4245.63,1640.79 4501.89,1714.07 4758.16,1787.34 5014.42,1860.62 5270.69,1933.89 "/>
<polyline clip-path="url(#clip712)" style="stroke:#ffff00; stroke-linecap:round; stroke-linejoin:round; stroke-width:4; stroke-opacity:0.5; fill:none" points="401.656,541.674 657.92,614.949 914.185,688.223 1170.45,761.498 1426.71,834.772 1682.98,908.047 1939.24,981.321 2195.51,1054.6 2451.77,1127.87 2708.04,1201.14 2964.3,1274.42 3220.57,1347.69 3476.83,1420.97 3733.1,1494.24 3989.36,1567.52 4245.63,1640.79 4501.89,1714.07 4758.16,1787.34 5014.42,1860.62 5270.69,1933.89 "/>
<polyline clip-path="url(#clip712)" style="stroke:#ffff00; stroke-linecap:round; stroke-linejoin:round; stroke-width:4; stroke-opacity:0.5; fill:none" points="401.656,541.674 657.92,614.949 914.185,688.223 1170.45,761.498 1426.71,834.772 1682.98,908.047 1939.24,981.321 2195.51,1054.6 2451.77,1127.87 2708.04,1201.14 2964.3,1274.42 3220.57,1347.69 3476.83,1420.97 3733.1,1494.24 3989.36,1567.52 4245.63,1640.79 4501.89,1714.07 4758.16,1787.34 5014.42,1860.62 5270.69,1933.89 "/>
<polyline clip-path="url(#clip712)" style="stroke:#ffff00; stroke-linecap:round; stroke-linejoin:round; stroke-width:80; stroke-opacity:0.5; fill:none" points="401.656,541.674 657.92,614.949 914.185,688.223 1170.45,761.498 1426.71,834.772 1682.98,908.047 1939.24,981.321 2195.51,1054.6 2451.77,1127.87 2708.04,1201.14 2964.3,1274.42 3220.57,1347.69 3476.83,1420.97 3733.1,1494.24 3989.36,1567.52 4245.63,1640.79 4501.89,1714.07 4758.16,1787.34 5014.42,1860.62 5270.69,1933.89 "/>
<polyline clip-path="url(#clip712)" style="stroke:#ffff00; stroke-linecap:round; stroke-linejoin:round; stroke-width:40; stroke-opacity:0.5; fill:none" points="401.656,541.674 657.92,614.949 914.185,688.223 1170.45,761.498 1426.71,834.772 1682.98,908.047 1939.24,981.321 2195.51,1054.6 2451.77,1127.87 2708.04,1201.14 2964.3,1274.42 3220.57,1347.69 3476.83,1420.97 3733.1,1494.24 3989.36,1567.52 4245.63,1640.79 4501.89,1714.07 4758.16,1787.34 5014.42,1860.62 5270.69,1933.89 "/>
<polyline clip-path="url(#clip712)" style="stroke:#ffff00; stroke-linecap:round; stroke-linejoin:round; stroke-width:4; stroke-opacity:0.5; fill:none" points="401.656,541.674 657.92,614.949 914.185,688.223 1170.45,761.498 1426.71,834.772 1682.98,908.047 1939.24,981.321 2195.51,1054.6 2451.77,1127.87 2708.04,1201.14 2964.3,1274.42 3220.57,1347.69 3476.83,1420.97 3733.1,1494.24 3989.36,1567.52 4245.63,1640.79 4501.89,1714.07 4758.16,1787.34 5014.42,1860.62 5270.69,1933.89 "/>
</svg>
